<svg width="700" height="320" viewBox="0 0 700 320" xmlns="http://www.w3.org/2000/svg" style="background:white">
  <defs>
    <linearGradient id="barGrad" x1="0%" y1="0%" x2="100%" y2="0%">
      <stop offset="0%" style="stop-color:#2d5016;stop-opacity:0.9"/>
      <stop offset="100%" style="stop-color:#4a7c2f;stop-opacity:0.9"/>
    </linearGradient>
  </defs>
  <rect width="700" height="320" fill="white"/>
  <text x="350" y="22" font-family="Georgia,serif" font-size="14" fill="#1e3a0f" text-anchor="middle" font-weight="500">Colombia Agricultural Export Share by Partner (2023)</text>
  <g stroke="#e8ede4" stroke-width="1">
    <line x1="180" y1="55" x2="660" y2="55"/>
    <line x1="180" y1="95" x2="660" y2="95"/>
    <line x1="180" y1="135" x2="660" y2="135"/>
    <line x1="180" y1="175" x2="660" y2="175"/>
    <line x1="180" y1="215" x2="660" y2="215"/>
  </g>
  <g font-family="sans-serif" font-size="9" fill="#5a5a55" text-anchor="middle">
    <text x="180" y="250">0%</text>
    <text x="300" y="250">10%</text>
    <text x="420" y="250">20%</text>
    <text x="540" y="250">30%</text>
    <text x="660" y="250">40%</text>
  </g>
  <g font-family="Georgia,serif" font-size="11" fill="#1a1a18" text-anchor="end">
    <text x="170" y="59">United States</text>
    <text x="170" y="99">European Union</text>
    <text x="170" y="139">China</text>
    <text x="170" y="179">Ecuador</text>
    <text x="170" y="219">Japan</text>
  </g>
  <rect x="180" y="45" width="403" height="20" fill="url(#barGrad)" rx="2"/>
  <text x="590" y="59" font-family="sans-serif" font-size="10" fill="white" font-weight="500">33.5%</text>
  <rect x="180" y="85" width="252" height="20" fill="url(#barGrad)" rx="2"/>
  <text x="440" y="99" font-family="sans-serif" font-size="10" fill="white" font-weight="500">21.0%</text>
  <rect x="180" y="125" width="78" height="20" fill="url(#barGrad)" rx="2"/>
  <text x="265" y="139" font-family="sans-serif" font-size="10" fill="#2d5016" font-weight="500">6.5%</text>
  <rect x="180" y="165" width="68" height="20" fill="url(#barGrad)" rx="2"/>
  <text x="255" y="179" font-family="sans-serif" font-size="10" fill="#2d5016" font-weight="500">5.7%</text>
  <rect x="180" y="205" width="55" height="20" fill="url(#barGrad)" rx="2"/>
  <text x="242" y="219" font-family="sans-serif" font-size="10" fill="#2d5016" font-weight="500">4.6%</text>
</svg>
