<svg width="700" height="320" viewBox="0 0 700 320" xmlns="http://www.w3.org/2000/svg" style="background:white;">
  <rect width="700" height="320" fill="white"/>
  <text x="350" y="22" font-family="Georgia,serif" font-size="14" fill="#1e3a0f" text-anchor="middle" font-weight="500">Agricultural Market Vulnerability Index (2019–2025)</text>
  <g stroke="#e8ede4" stroke-width="1">
    <line x1="80" y1="60" x2="660" y2="60"/>
    <line x1="80" y1="110" x2="660" y2="110"/>
    <line x1="80" y1="160" x2="660" y2="160"/>
    <line x1="80" y1="210" x2="660" y2="210"/>
    <line x1="80" y1="260" x2="660" y2="260"/>
  </g>
  <g font-family="sans-serif" font-size="10" fill="#5a5a55" text-anchor="end">
    <text x="75" y="64">100</text>
    <text x="75" y="114">75</text>
    <text x="75" y="164">50</text>
    <text x="75" y="214">25</text>
    <text x="75" y="264">0</text>
  </g>
  <g font-family="sans-serif" font-size="9" fill="#5a5a55" text-anchor="middle">
    <text x="120" y="290">2019-Q4</text>
    <text x="240" y="290">2020-Q4</text>
    <text x="360" y="290">2021-Q4</text>
    <text x="480" y="290">2022-Q4</text>
    <text x="600" y="290">2024-Q4</text>
  </g>
  <polyline fill="none" stroke="#2d5016" stroke-width="2.5" stroke-linecap="round"
    points="120,215 160,195 200,175 240,120 280,95 320,65 360,75 400,90 440,110 480,140 520,160 560,180 600,195"/>
  <polyline fill="none" stroke="#1565c0" stroke-width="2" stroke-linecap="round"
    points="120,220 160,200 200,185 240,130 280,105 320,75 360,85 400,100 440,120 480,150 520,170 560,185 600,200"/>
  <polyline fill="none" stroke="#d32f2f" stroke-width="2" stroke-linecap="round"
    points="120,205 160,180 200,160 240,105 280,80 320,55 360,65 400,75 440,95 480,120 520,145 560,165 600,185"/>
  <circle cx="320" cy="65" r="5" fill="#d32f2f"/>
  <text x="330" y="68" font-family="sans-serif" font-size="9" fill="#d32f2f">Crisis Peak</text>
  <g transform="translate(500, 50)">
    <rect x="0" y="0" width="140" height="65" fill="white" stroke="#c8d4c0" rx="3"/>
    <line x1="10" y1="15" x2="35" y2="15" stroke="#2d5016" stroke-width="2.5"/>
    <text x="42" y="18" font-family="sans-serif" font-size="9" fill="#1a1a18">Colombia</text>
    <line x1="10" y1="32" x2="35" y2="32" stroke="#1565c0" stroke-width="2"/>
    <text x="42" y="35" font-family="sans-serif" font-size="9" fill="#1a1a18">Brazil</text>
    <line x1="10" y1="49" x2="35" y2="49" stroke="#d32f2f" stroke-width="2"/>
    <text x="42" y="52" font-family="sans-serif" font-size="9" fill="#1a1a18">Argentina</text>
  </g>
</svg>
